<?xml version="1.0" standalone="no"?>
<!DOCTYPE svg PUBLIC "-//W3C//DTD SVG 20010904//EN"
 "http://www.w3.org/TR/2001/REC-SVG-20010904/DTD/svg10.dtd">
<svg version="1.0" xmlns="http://www.w3.org/2000/svg"
 width="1188.000000pt" height="723.000000pt" viewBox="0 0 1188.000000 723.000000"
 preserveAspectRatio="xMidYMid meet">

<g transform="translate(0.000000,723.000000) scale(0.100000,-0.100000)"
fill="#000000" stroke="none">
<path d="M11777 7183 c18 -2 50 -2 70 0 21 2 7 4 -32 4 -38 0 -55 -2 -38 -4z"/>
<path d="M11777 7153 c18 -2 50 -2 70 0 21 2 7 4 -32 4 -38 0 -55 -2 -38 -4z"/>
<path d="M5230 4124 c0 -16 113 -161 153 -196 10 -10 16 -18 13 -18 -9 0 102
-159 136 -194 21 -22 25 -32 16 -38 -10 -6 -9 -8 2 -8 8 0 16 -10 16 -22 5
-65 26 -120 40 -105 5 5 2 12 -5 16 -7 5 -11 13 -7 19 3 6 1 14 -5 17 -5 4 -8
13 -5 21 3 7 1 16 -3 18 -5 3 -8 17 -8 31 0 49 14 24 31 -56 14 -67 15 -83 4
-90 -10 -7 -10 -9 0 -9 8 0 12 -20 12 -65 0 -39 -4 -65 -11 -65 -5 0 -7 -4 -4
-10 3 -5 -1 -20 -9 -32 -11 -15 -16 -45 -16 -90 0 -63 3 -72 36 -117 31 -41
53 -57 135 -96 78 -37 102 -45 113 -36 11 9 15 9 19 -1 3 -7 6 -1 6 15 1 19
-4 27 -16 27 -14 0 -15 -2 -5 -9 11 -7 10 -9 -3 -14 -11 -5 -14 -3 -9 5 5 8 2
9 -9 5 -19 -7 -50 19 -41 36 3 7 -2 3 -11 -8 -17 -20 -17 -20 -10 3 4 13 2 22
-4 22 -6 0 -11 -4 -11 -9 0 -14 -40 -4 -61 15 -17 15 -16 49 2 38 5 -3 9 2 9
10 0 10 -6 13 -17 9 -17 -6 -17 -5 0 14 14 16 15 23 6 29 -8 5 -10 3 -4 -6 5
-9 4 -11 -3 -6 -17 10 -15 26 3 26 8 0 15 5 15 11 0 5 -4 7 -10 4 -6 -4 -8 10
-4 37 3 24 7 61 8 83 5 60 6 61 15 46 5 -8 7 -21 3 -29 -3 -10 -1 -13 6 -8 6
3 13 2 17 -4 3 -5 1 -10 -4 -10 -6 0 -11 -5 -11 -12 0 -6 3 -8 7 -5 9 10 43
-23 44 -42 0 -11 2 -12 6 -3 4 10 8 10 21 0 8 -7 16 -11 18 -8 6 10 124 -171
124 -189 0 -11 5 -23 11 -27 8 -4 9 17 6 76 -6 82 -7 84 -71 181 -56 84 -72
101 -113 119 -26 11 -53 18 -60 16 -13 -5 -18 6 -7 16 3 4 33 -6 66 -21 56
-26 64 -34 123 -125 49 -76 65 -110 70 -150 4 -28 10 -65 15 -82 6 -24 1 -46
-22 -100 l-29 -68 28 24 c21 19 19 16 -7 -16 -19 -22 -42 -50 -50 -62 -12 -18
-16 -19 -23 -7 -4 8 -18 15 -30 15 -21 0 -21 -1 3 -13 14 -7 28 -26 34 -45 7
-24 13 -31 26 -27 14 4 16 0 12 -27 -3 -18 -7 -27 -9 -20 -3 6 -9 10 -13 7
-10 -6 8 -56 24 -66 5 -4 6 -16 3 -28 -5 -20 2 -26 32 -22 7 2 11 -4 8 -11 -2
-7 3 -26 11 -43 9 -16 17 -39 19 -50 2 -11 8 -22 13 -23 6 -2 8 -8 4 -13 -3
-5 -1 -9 4 -9 5 0 7 -11 5 -25 -4 -20 1 -27 32 -42 34 -16 36 -20 30 -51 -6
-34 -6 -34 27 -27 18 4 41 16 51 27 16 20 16 22 -13 61 -27 37 -28 41 -12 53
15 12 15 12 -5 7 -18 -4 -23 0 -29 21 -3 14 -12 30 -19 36 -8 6 -11 19 -8 27
4 9 2 14 -3 10 -6 -3 -9 7 -8 24 1 16 -2 27 -7 24 -4 -3 -6 -13 -2 -23 4 -13
2 -12 -9 3 -28 38 -90 156 -85 161 7 8 47 -37 47 -53 0 -7 4 -13 9 -13 4 0 21
-19 36 -41 24 -37 32 -55 34 -82 1 -5 6 -5 13 -1 7 4 8 3 4 -4 -4 -7 -2 -12 5
-12 9 0 9 -3 0 -14 -9 -11 -9 -14 1 -12 7 0 14 -3 15 -7 1 -4 9 -15 18 -23 9
-10 13 -24 9 -40 -5 -20 -3 -23 12 -17 13 5 15 3 9 -7 -6 -9 -4 -11 5 -5 10 6
12 4 7 -8 -9 -23 7 -29 29 -11 15 13 16 15 2 10 -9 -2 -19 2 -22 10 -5 12 -1
14 15 9 16 -5 30 1 55 26 18 18 30 37 27 43 -3 6 -3 8 2 4 4 -4 14 -3 22 3 10
9 11 15 1 28 -10 13 -10 14 2 4 19 -17 33 -16 27 1 -4 10 -1 13 9 9 9 -3 14 0
12 7 -2 7 5 14 15 15 21 4 78 60 70 69 -4 3 -1 7 5 7 21 2 27 4 40 12 7 5 10
13 7 18 -4 5 -1 9 6 9 7 0 10 3 7 6 -9 8 -89 -36 -83 -46 3 -5 0 -12 -6 -16
-8 -4 -9 -3 -5 4 4 7 1 12 -8 12 -9 0 -16 -5 -16 -11 0 -5 -4 -8 -9 -4 -6 3
-35 -7 -65 -22 l-56 -27 -37 34 c-21 19 -70 66 -110 104 -48 47 -76 67 -87 63
-29 -12 -16 0 53 46 l68 45 69 -25 c38 -14 94 -35 124 -46 44 -17 77 -21 169
-21 74 0 116 4 118 11 2 6 12 9 22 6 10 -3 21 -1 24 5 14 22 -88 169 -238 341
-150 172 -160 182 -187 176 -27 -6 -40 4 -189 159 -148 153 -236 229 -266 229
-7 0 -11 3 -10 7 3 12 -157 129 -168 123 -5 -4 -7 -3 -3 2 7 7 -51 55 -65 55
-3 0 -2 -21 0 -47 l5 -48 -56 83 c-34 50 -61 80 -68 76 -7 -4 -8 -3 -4 4 13
21 -14 51 -99 112 -89 63 -106 72 -84 43 13 -17 13 -17 -7 0 -26 21 -34 22
-34 1z m91 -41 c13 -16 12 -17 -3 -4 -10 7 -18 15 -18 17 0 8 8 3 21 -13z
m165 -161 c-4 -3 -14 2 -24 12 -16 18 -16 18 6 6 13 -6 21 -14 18 -18z m63
-126 c24 -38 26 -46 9 -46 -6 0 -8 3 -5 7 4 3 -3 21 -14 40 -11 18 -18 33 -16
33 3 0 15 -15 26 -34z m31 -78 c0 -19 -2 -20 -10 -8 -13 19 -13 30 0 30 6 0
10 -10 10 -22z m226 -46 c-3 -5 19 -23 48 -40 29 -18 74 -58 101 -90 l49 -57
-54 45 c-30 25 -79 65 -107 89 -44 37 -59 61 -37 61 3 0 3 -4 0 -8z m19 -102
c55 -41 141 -112 222 -184 l32 -28 -22 -20 c-12 -11 -17 -17 -10 -14 6 4 13 3
16 -1 2 -5 2 -2 1 5 -2 6 1 12 6 12 14 0 41 -31 35 -41 -4 -5 -1 -9 5 -9 6 0
8 -4 5 -10 -3 -5 -2 -10 4 -10 12 0 45 -59 38 -67 -3 -2 -15 9 -28 26 -13 17
-26 31 -31 31 -8 0 11 -26 45 -62 16 -17 16 -18 -2 -18 -11 0 -23 -5 -26 -10
-4 -7 3 -9 22 -5 25 5 26 4 6 -4 -13 -6 -23 -16 -23 -23 0 -9 3 -9 12 0 7 7
16 12 20 12 14 0 8 -43 -8 -62 -9 -9 -18 -34 -20 -53 -4 -41 -12 -58 -24 -50
-5 3 -7 33 -3 65 4 42 2 60 -6 60 -6 0 -11 7 -11 17 0 24 -6 13 -13 -25 -4
-21 -3 -31 3 -27 6 3 10 1 10 -4 0 -6 -6 -11 -13 -11 -8 0 -14 -7 -14 -15 0
-18 13 -20 20 -2 3 6 4 -1 3 -18 -2 -19 -7 -29 -16 -27 -7 2 -24 -7 -39 -20
l-26 -23 24 27 c28 32 39 117 12 95 -12 -10 -13 -8 -7 16 3 15 2 27 -2 27 -5
0 -12 23 -15 51 -4 28 -12 57 -18 65 -6 8 -8 14 -4 14 4 0 -4 12 -19 26 -14
15 -26 33 -26 40 0 8 -3 14 -7 14 -5 0 -21 20 -36 45 -16 24 -37 47 -48 50
-10 4 -19 10 -19 14 0 4 -9 7 -21 8 -11 1 -34 10 -52 20 -28 17 -33 27 -44 88
-19 111 -19 112 20 83 17 -13 59 -44 92 -68z m304 -263 c28 -50 51 -95 51
-101 0 -6 -20 24 -43 67 -24 43 -47 74 -52 70 -4 -5 -5 -2 -1 5 5 8 -3 28 -20
50 -20 27 -22 32 -6 19 11 -11 44 -60 71 -110z m-314 3 c14 -26 14 -29 0 -24
-8 3 -13 10 -10 14 3 5 1 11 -5 15 -5 3 -10 1 -10 -5 0 -7 -4 -7 -13 1 -7 7
-13 20 -13 30 0 25 32 6 51 -31z m-205 -30 c0 -33 -4 -60 -10 -60 -11 0 -14
78 -4 104 11 28 14 18 14 -44z m690 -37 c17 -21 64 -71 103 -112 40 -41 66
-71 59 -66 -10 5 -13 2 -10 -10 1 -10 10 -20 18 -22 13 -4 13 -3 0 7 -13 10
-13 11 0 7 8 -2 13 -11 11 -18 -2 -8 -4 -19 -4 -24 0 -6 -10 -12 -21 -13 -16
-1 -17 1 -6 8 12 8 12 11 -2 27 -12 13 -14 23 -7 35 5 10 6 19 0 22 -5 3 -11
-3 -14 -14 -3 -11 -10 -20 -16 -20 -7 0 -5 10 5 25 9 14 14 25 10 25 -13 0
-21 -5 -19 -12 2 -4 -3 -5 -11 -2 -8 3 -17 0 -21 -6 -5 -8 -11 -5 -21 7 -16
21 -18 37 -4 28 6 -3 10 0 10 7 1 8 6 6 15 -6 7 -10 19 -15 25 -11 6 4 2 13
-12 24 -21 18 -23 18 -42 -1 -26 -25 -65 -40 -83 -34 -17 7 -17 33 0 39 9 3 7
9 -5 24 -10 11 -18 27 -18 37 0 9 -5 27 -11 38 -10 18 -9 20 7 14 30 -12 32
-12 32 -1 0 6 -4 9 -9 8 -5 -2 -9 1 -9 7 0 5 -6 7 -14 4 -10 -4 -13 0 -12 13
2 10 -2 25 -8 33 -23 29 53 -31 84 -67z m-113 -275 c-1 -40 -3 -8 -3 72 0 80
2 112 3 73 2 -40 2 -106 0 -145z m153 25 l-5 -88 -3 94 c-3 90 -3 93 -21 77
-15 -14 -21 -15 -27 -4 -4 7 -4 10 1 6 4 -4 14 0 22 8 29 28 38 1 33 -93z
m-182 7 c-3 -44 -1 -71 6 -74 6 -3 2 -4 -9 -3 -27 3 -46 16 -40 28 4 5 1 10
-4 10 -26 3 -30 4 -37 12 -4 4 5 6 19 5 15 -1 27 -6 27 -10 0 -4 5 -8 11 -8 6
0 8 8 4 20 -8 25 4 90 17 90 6 0 8 -27 6 -70z m290 14 c1 0 -9 -6 -22 -12 -20
-9 -24 -8 -21 6 2 9 4 21 4 26 1 5 9 2 19 -5 9 -7 18 -14 20 -15z m61 -24 c1
9 8 5 19 -12 10 -15 23 -24 28 -20 5 4 1 -1 -9 -10 -20 -19 -37 -16 -37 7 0 8
-5 17 -10 20 -12 7 -9 -23 5 -45 7 -13 6 -13 -7 -2 -8 7 -14 22 -13 35 7 65 6
64 15 37 4 -14 8 -18 9 -10z m-24 -80 c-3 -5 -12 -10 -18 -10 -7 0 -6 4 3 10
19 12 23 12 15 0z m-61 -18 c3 -5 -1 -9 -9 -9 -8 0 -12 4 -9 9 3 4 7 8 9 8 2
0 6 -4 9 -8z m126 5 c0 -2 -10 -12 -22 -23 l-23 -19 19 23 c18 21 26 27 26 19z
m-620 -72 c0 -8 -4 -15 -10 -15 -5 0 -7 7 -4 15 4 8 8 15 10 15 2 0 4 -7 4
-15z m350 -249 c0 -2 -8 -10 -17 -17 -16 -13 -17 -12 -4 4 13 16 21 21 21 13z
m-224 -81 c4 -8 10 -12 15 -9 5 3 9 0 9 -5 0 -6 0 -13 0 -16 0 -3 -3 -5 -6 -4
-4 0 -11 -5 -16 -13 -7 -9 -8 -8 -4 6 4 11 0 26 -10 37 -11 12 -13 19 -5 19 6
0 14 -7 17 -15z m180 -35 c8 0 14 -4 14 -9 0 -5 -12 -8 -27 -6 -16 2 -32 4
-36 4 -5 1 -5 6 -2 12 4 6 14 8 22 5 8 -3 21 -6 29 -6z m-141 -20 c-4 -6 -1
-19 7 -28 11 -15 11 -15 -2 -5 -15 11 -19 13 -42 13 -7 1 -2 7 12 15 30 17 33
18 25 5z"/>
<path d="M6100 3211 c0 -6 4 -13 10 -16 6 -3 7 1 4 9 -7 18 -14 21 -14 7z"/>
<path d="M6051 3174 c0 -11 3 -14 6 -6 3 7 2 16 -1 19 -3 4 -6 -2 -5 -13z"/>
<path d="M6055 3010 c3 -5 8 -10 11 -10 2 0 4 5 4 10 0 6 -5 10 -11 10 -5 0
-7 -4 -4 -10z"/>
<path d="M6248 3208 c5 -20 17 -23 27 -8 4 6 16 4 31 -6 19 -13 22 -19 13 -31
-9 -11 -9 -17 1 -26 10 -9 11 -9 6 1 -4 7 -2 19 4 27 10 12 7 19 -15 37 -35
28 -74 31 -67 6z"/>
<path d="M6290 3131 c0 -5 5 -13 10 -16 6 -3 10 -2 10 4 0 5 -4 13 -10 16 -5
3 -10 2 -10 -4z"/>
<path d="M6260 3110 c0 -5 5 -10 10 -10 6 0 10 5 10 10 0 6 -4 10 -10 10 -5 0
-10 -4 -10 -10z"/>
<path d="M6360 3100 c0 -5 5 -10 11 -10 5 0 7 5 4 10 -3 6 -8 10 -11 10 -2 0
-4 -4 -4 -10z"/>
<path d="M6130 2939 c0 -5 5 -7 10 -4 6 3 10 8 10 11 0 2 -4 4 -10 4 -5 0 -10
-5 -10 -11z"/>
<path d="M5601 3404 c0 -11 3 -14 6 -6 3 7 2 16 -1 19 -3 4 -6 -2 -5 -13z"/>
<path d="M5740 3270 c0 -5 4 -10 9 -10 5 0 7 -9 4 -20 -3 -11 0 -20 6 -20 6 0
9 10 7 23 -3 12 -5 25 -5 30 -1 11 -21 8 -21 -3z"/>
<path d="M5831 3248 c-1 -9 -5 -20 -11 -23 -6 -4 -7 1 -3 11 4 12 3 15 -5 10
-16 -10 -15 -27 3 -40 18 -13 22 -42 10 -70 -6 -14 -5 -17 3 -12 8 4 10 2 6
-7 -3 -8 2 -17 10 -20 9 -4 16 -12 16 -19 0 -9 -3 -8 -10 2 -8 13 -10 13 -10
-2 0 -9 -6 -19 -12 -21 -10 -4 -10 -6 0 -6 7 -1 10 -5 7 -11 -3 -6 1 -7 9 -4
9 3 13 10 10 15 -3 5 2 6 11 2 13 -4 16 -1 13 18 -1 13 -10 30 -18 37 -13 10
-13 11 3 6 16 -6 17 -3 11 22 -4 16 -7 34 -7 41 0 7 -3 10 -7 8 -4 -3 -6 -16
-5 -30 2 -14 0 -23 -5 -20 -8 5 -6 48 3 62 3 4 -1 22 -8 38 -8 18 -14 23 -14
13z"/>
<path d="M5776 3213 c-5 -24 -12 -30 -24 -26 -14 4 -14 3 -2 -5 8 -6 17 -9 22
-6 4 3 6 -11 4 -31 -3 -41 6 -52 25 -29 9 12 10 17 1 23 -6 4 -10 16 -9 26 2
11 1 34 -3 50 l-6 30 -8 -32z"/>
<path d="M5747 3150 c10 -11 19 -20 21 -20 1 0 -2 9 -8 20 -6 11 -15 20 -20
20 -6 0 -2 -9 7 -20z"/>
<path d="M5715 3093 c11 -12 18 -14 26 -6 8 8 7 13 -2 18 -8 5 -10 4 -5 -3 9
-15 -6 -16 -22 -2 -7 5 -5 2 3 -7z"/>
<path d="M6472 2615 c-35 -30 -68 -52 -74 -49 -6 4 -8 2 -4 -4 3 -6 -13 -27
-38 -48 -25 -21 -72 -68 -105 -105 l-61 -67 103 -60 c84 -49 128 -85 237 -191
117 -116 139 -133 179 -142 38 -8 51 -17 73 -52 l27 -42 -126 -3 c-109 -2
-128 0 -136 14 -5 9 -22 30 -38 48 l-30 31 32 -48 c29 -45 30 -49 15 -66 -9
-10 -16 -20 -16 -23 0 -3 37 -11 83 -18 45 -6 130 -20 188 -31 59 -11 114 -17
123 -13 9 4 16 1 16 -6 0 -8 10 -11 30 -7 16 4 32 2 35 -3 3 -5 21 -6 40 -3
20 3 35 1 35 -4 0 -6 24 -13 53 -17 28 -3 69 -9 90 -12 l38 -7 -3 34 c-3 29
-7 34 -40 42 -37 9 -38 11 -38 52 0 28 -7 51 -21 69 -11 14 -17 26 -13 26 4 0
-5 9 -19 20 -14 11 -62 29 -107 39 -45 11 -88 25 -96 32 -11 9 -14 9 -14 -1 0
-10 -3 -10 -15 0 -9 7 -13 15 -10 18 6 7 -25 42 -37 42 -5 0 -6 -6 -2 -12 5
-9 2 -9 -9 1 -19 15 -23 26 -5 15 7 -4 8 -3 4 4 -4 7 -15 12 -25 12 -10 0 -26
10 -37 22 -12 13 -13 18 -4 13 17 -10 11 -1 -47 68 -17 22 -29 45 -27 52 3 7
1 16 -5 20 -7 4 -8 -1 -4 -12 5 -16 4 -16 -10 -3 -8 8 -36 39 -61 69 l-46 55
0 153 c0 84 -3 153 -8 153 -4 0 -36 -25 -70 -55z m10 -102 c-5 -10 -8 -33 -7
-50 1 -18 -1 -31 -3 -28 -6 6 -31 -26 -32 -39 0 -5 9 -1 19 8 14 12 19 14 18
4 -2 -7 -7 -14 -12 -16 -23 -8 -45 -37 -40 -53 8 -26 -9 -31 -24 -7 -7 11 -9
18 -4 15 13 -8 30 24 28 51 -1 12 1 22 4 22 11 0 31 53 24 63 -4 6 -1 7 8 2 8
-5 11 -5 7 -1 -10 11 -23 8 -23 -6 0 -7 -6 -14 -12 -14 -7 -1 -16 -3 -20 -4
-5 -1 -12 -2 -16 -1 -5 1 -6 -3 -2 -9 4 -6 -1 -7 -10 -3 -10 3 -21 0 -26 -8
-5 -8 -9 -9 -9 -3 0 13 50 61 50 48 0 -5 5 -1 11 8 6 11 16 15 26 11 10 -4 14
-2 10 4 -4 5 0 19 8 29 11 13 15 15 13 4 -2 -8 -7 -19 -13 -23 -6 -5 -4 -7 5
-4 8 2 16 9 16 15 3 30 7 36 11 20 2 -9 0 -25 -5 -35z m-52 -73 c0 -13 -32
-28 -50 -23 -12 4 -12 3 -1 -5 8 -6 9 -12 3 -16 -16 -10 -22 21 -6 34 8 7 14
9 14 4 0 -4 5 -3 12 4 14 14 28 16 28 2z m-17 -50 c-5 -19 -23 -29 -23 -12 0
7 20 32 26 32 1 0 0 -9 -3 -20z m67 -23 c0 -2 -8 -11 -18 -20 -15 -14 -19 -15
-19 -2 0 8 4 12 8 9 4 -2 10 0 14 6 6 10 15 14 15 7z m54 -79 c-4 -7 -2 -8 5
-4 6 4 14 0 18 -11 4 -10 18 -26 31 -37 15 -12 22 -26 19 -37 -3 -11 -1 -17 4
-14 5 4 23 -9 40 -26 23 -23 28 -34 19 -37 -8 -3 -45 29 -86 74 -48 52 -79 78
-91 76 -15 -2 -15 -1 -3 7 8 5 18 7 22 5 4 -3 8 2 8 11 0 9 5 13 10 10 6 -4 7
-11 4 -17z m323 -335 c-4 -3 -1 -13 5 -22 7 -9 8 -13 4 -9 -5 4 -15 3 -22 -3
-9 -8 -12 -6 -9 8 2 10 4 21 4 26 1 4 6 7 13 7 6 0 8 -3 5 -7z m18 -52 c-9 -8
-36 -10 -30 -2 2 4 11 8 20 8 8 0 13 -3 10 -6z m232 -167 c-3 -3 -12 -4 -19
-1 -8 3 -5 6 6 6 11 1 17 -2 13 -5z"/>
<path d="M6416 2485 c-3 -9 -10 -14 -15 -10 -5 3 -12 1 -15 -4 -8 -13 22 -7
36 7 6 6 9 14 6 17 -3 3 -8 -1 -12 -10z"/>
<path d="M6570 2233 c0 -6 8 -17 18 -24 16 -13 16 -13 2 6 -8 11 -16 22 -17
24 -2 2 -3 0 -3 -6z"/>
<path d="M6054 2645 c3 -21 16 -31 16 -12 0 9 -4 18 -9 21 -5 4 -8 -1 -7 -9z"/>
<path d="M4883 2613 c16 -17 27 -39 25 -49 -3 -16 6 -20 59 -26 34 -4 72 -12
85 -18 13 -7 66 -54 118 -105 61 -59 121 -108 168 -133 39 -23 72 -39 72 -38
0 2 -37 31 -82 64 -84 61 -135 108 -130 120 1 4 -2 7 -7 7 -5 0 -43 38 -85 85
-74 81 -113 107 -163 109 -12 1 -23 -5 -25 -11 -3 -9 -13 -7 -34 6 l-29 19 28
-30z"/>
<path d="M6105 2540 c3 -5 8 -10 11 -10 2 0 4 5 4 10 0 6 -5 10 -11 10 -5 0
-7 -4 -4 -10z"/>
<path d="M6130 2501 c0 -6 4 -13 10 -16 6 -3 7 1 4 9 -7 18 -14 21 -14 7z"/>
<path d="M5233 2403 c10 -11 41 -35 70 -53 62 -38 44 -19 -33 35 -30 22 -47
30 -37 18z"/>
<path d="M8465 2410 c27 -12 43 -12 25 0 -8 5 -22 9 -30 9 -10 0 -8 -3 5 -9z"/>
<path d="M5894 2373 c3 -16 8 -38 12 -51 l7 -23 -52 20 c-28 11 -58 18 -67 14
-12 -4 -15 -3 -10 5 10 17 -2 15 -38 -7 -17 -11 -58 -22 -91 -26 -121 -13
-133 -16 -138 -36 -4 -13 -14 -19 -34 -20 -27 0 -27 -1 -5 -10 16 -6 22 -14
18 -26 -4 -14 9 -26 61 -53 86 -45 87 -46 80 -27 -8 23 11 35 131 83 l107 43
-50 1 c-27 0 -57 5 -65 10 -27 17 30 27 130 23 106 -4 117 1 138 63 l10 31
-51 7 c-94 11 -100 10 -93 -21z"/>
<path d="M4940 2386 c0 -2 8 -10 18 -17 15 -13 16 -12 3 4 -13 16 -21 21 -21
13z"/>
<path d="M4980 2356 c0 -2 8 -10 18 -17 15 -13 16 -12 3 4 -13 16 -21 21 -21
13z"/>
<path d="M5030 2316 c0 -2 8 -10 18 -17 15 -13 16 -12 3 4 -13 16 -21 21 -21
13z"/>
<path d="M6035 2288 c2 -7 9 -32 15 -55 6 -24 15 -43 20 -43 5 0 4 13 -1 30
-6 16 -9 34 -7 39 6 20 166 -94 279 -200 65 -60 122 -109 128 -109 25 0 -242
232 -332 289 -53 34 -99 61 -101 61 -3 0 -3 -6 -1 -12z"/>
<path d="M9387 2292 c-27 -3 -28 -4 -10 -18 16 -13 15 -13 -10 -4 -35 12 -40
12 -32 0 6 -10 -89 -5 -106 6 -5 3 -16 0 -24 -6 -8 -7 -27 -10 -42 -7 -16 4
-22 4 -15 1 17 -8 15 -24 -3 -24 -8 0 -15 5 -15 10 0 6 -7 10 -16 10 -8 0 -12
-4 -9 -10 3 -5 0 -10 -9 -10 -8 0 -16 4 -18 9 -1 5 -14 3 -28 -5 l-25 -14 30
6 c29 5 29 5 11 -10 -11 -9 -28 -14 -37 -11 -10 3 -20 1 -24 -5 -10 -16 -25
-12 -19 5 4 10 0 15 -11 15 -9 0 -14 -4 -11 -9 3 -5 -4 -11 -15 -14 -24 -6
-17 -27 9 -26 14 0 13 2 -3 9 -13 6 -15 9 -5 9 18 1 34 -10 37 -25 1 -7 -8 -9
-24 -6 -18 3 -24 1 -19 -7 4 -6 11 -9 16 -6 5 3 11 1 15 -5 9 -15 35 -12 29 3
-3 10 3 13 23 11 15 -1 34 -2 41 -3 6 -1 12 -9 12 -18 0 -15 2 -16 10 -3 5 8
17 16 27 17 10 2 32 5 48 8 84 13 126 15 120 5 -3 -5 -13 -10 -22 -10 -9 0
-14 -2 -11 -5 8 -9 59 6 53 15 -2 4 19 11 48 15 81 13 87 13 87 1 0 -6 5 -3
11 7 12 21 66 22 93 2 19 -15 19 -15 -2 -15 -12 0 -22 -4 -22 -9 0 -5 -10 -12
-22 -14 -13 -3 -3 -5 22 -4 25 1 48 6 52 12 4 5 30 10 57 10 29 0 44 3 38 8
-7 5 2 6 21 3 18 -3 31 -2 27 3 -3 5 1 11 7 14 7 3 -16 3 -52 1 -56 -3 -60 -2
-32 6 37 12 44 25 8 16 -14 -3 -28 -2 -31 4 -3 5 2 10 11 10 28 0 7 13 -26 17
-17 1 -41 9 -53 17 -23 14 -112 25 -160 18z m61 -19 c2 -7 -4 -13 -13 -13 -9
0 -14 4 -11 9 4 5 0 12 -6 15 -7 3 -4 5 6 3 11 -1 21 -8 24 -14z m152 -33 c0
-12 -8 -12 -35 0 -18 8 -17 9 8 9 15 1 27 -3 27 -9z"/>
<path d="M9550 2290 c20 -13 33 -13 25 0 -3 6 -14 10 -23 10 -15 0 -15 -2 -2
-10z"/>
<path d="M9275 2280 c-3 -6 1 -7 9 -4 18 7 21 14 7 14 -6 0 -13 -4 -16 -10z"/>
<path d="M5920 2250 c20 -13 43 -13 35 0 -3 6 -16 10 -28 10 -18 0 -19 -2 -7
-10z"/>
<path d="M4050 2215 c-14 -8 -20 -14 -14 -15 5 0 19 7 30 15 24 18 16 19 -16
0z"/>
<path d="M4090 2219 c0 -5 5 -7 10 -4 6 3 10 8 10 11 0 2 -4 4 -10 4 -5 0 -10
-5 -10 -11z"/>
<path d="M6083 2209 c4 -13 7 -27 7 -31 0 -5 4 -8 9 -8 11 0 1 49 -12 57 -6 4
-8 -2 -4 -18z"/>
<path d="M8888 2203 c7 -3 16 -2 19 1 4 3 -2 6 -13 5 -11 0 -14 -3 -6 -6z"/>
<path d="M9478 2193 c7 -3 16 -2 19 1 4 3 -2 6 -13 5 -11 0 -14 -3 -6 -6z"/>
<path d="M8840 2180 c0 -5 7 -10 16 -10 8 0 12 5 9 10 -3 6 -10 10 -16 10 -5
0 -9 -4 -9 -10z"/>
<path d="M9340 2161 c0 -5 -8 -12 -17 -14 -10 -3 14 -4 52 -4 43 0 54 2 27 4
-23 2 -40 8 -37 14 4 5 -1 9 -9 9 -9 0 -16 -4 -16 -9z"/>
<path d="M9708 2163 c7 -3 16 -2 19 1 4 3 -2 6 -13 5 -11 0 -14 -3 -6 -6z"/>
<path d="M5960 2150 c-11 -7 -6 -10 22 -10 20 0 45 -3 55 -6 10 -3 7 2 -7 10
-29 18 -49 20 -70 6z"/>
<path d="M6180 2146 c0 -7 206 -234 283 -311 l29 -30 -18 29 c-18 29 -18 29 3
17 39 -20 36 7 -6 50 -23 22 -41 44 -41 48 0 4 -22 24 -50 45 -27 21 -47 43
-43 49 3 6 1 7 -6 3 -10 -7 -40 15 -133 92 -10 9 -18 12 -18 8z"/>
<path d="M9148 2143 c6 -2 18 -2 25 0 6 3 1 5 -13 5 -14 0 -19 -2 -12 -5z"/>
<path d="M6160 2056 c30 -34 79 -70 86 -63 2 2 -21 24 -53 47 -41 31 -51 35
-33 16z"/>
<path d="M7060 2030 c0 -7 8 -10 19 -7 19 4 22 -7 9 -29 -8 -12 12 -56 27 -61
6 -2 20 3 30 11 19 13 19 16 3 48 l-16 33 -11 -29 c-9 -23 -9 -31 1 -37 7 -4
9 -11 5 -15 -13 -13 -22 7 -22 49 0 36 -3 42 -22 45 -13 2 -23 -2 -23 -8z"/>
</g>
</svg>
